<svg xmlns="http://www.w3.org/2000/svg" xmlns:xlink="http://www.w3.org/1999/xlink" viewBox="0 0 1280 1024"><defs><style>.cls-1{fill:url(#Naamloos_verloop_26);}.cls-2{fill:url(#Naamloos_verloop_36);}.cls-3{fill:url(#Naamloos_verloop_43);}.cls-4{fill:url(#Naamloos_verloop_7);}.cls-5{fill:#ffe6d8;}.cls-6{stroke:#000;stroke-miterlimit:10;}.cls-7{fill:url(#Naamloos_verloop_3);}.cls-8{fill:url(#Naamloos_verloop_5);}.cls-9{fill:url(#Naamloos_verloop_19);}</style><linearGradient id="Naamloos_verloop_26" x1="677.88" y1="439.8" x2="742.32" y2="316.62" gradientTransform="matrix(-0.98, 0.19, 0.19, 0.98, 1203.15, -92.75)" gradientUnits="userSpaceOnUse"><stop offset="0.04" stop-color="#2ebaff"/><stop offset="1" stop-color="#ba00ff"/></linearGradient><linearGradient id="Naamloos_verloop_36" x1="618.9" y1="750.16" x2="674.88" y2="643.18" gradientTransform="matrix(-1, 0, 0, 1, 1279.12, 0)" gradientUnits="userSpaceOnUse"><stop offset="0.04" stop-color="#ffd848"/><stop offset="0.99" stop-color="#24bcc3"/></linearGradient><linearGradient id="Naamloos_verloop_43" x1="672.55" y1="841.19" x2="710.61" y2="768.43" gradientTransform="matrix(-0.89, -0.46, -0.46, 0.89, 1563.45, 316.24)" gradientUnits="userSpaceOnUse"><stop offset="0.04" stop-color="#ffd848"/><stop offset="1" stop-color="#24bcc3"/></linearGradient><linearGradient id="Naamloos_verloop_7" x1="682.58" y1="693.49" x2="887.45" y2="301.88" gradientTransform="matrix(-1, 0, 0, 1, 1279.12, 0)" gradientUnits="userSpaceOnUse"><stop offset="0.04" stop-color="#2ea8ff"/><stop offset="1" stop-color="#d2d0ff"/></linearGradient><linearGradient id="Naamloos_verloop_3" x1="839.36" y1="308.06" x2="955.26" y2="368.35" gradientTransform="matrix(-1, 0, 0, 1, 1279.12, 0)" gradientUnits="userSpaceOnUse"><stop offset="0.04" stop-color="#fbb03b"/><stop offset="1" stop-color="#fcee21"/></linearGradient><linearGradient id="Naamloos_verloop_5" x1="878.18" y1="389.73" x2="923.26" y2="411.97" gradientTransform="matrix(-1, 0, 0, 1, 1279.12, 0)" gradientUnits="userSpaceOnUse"><stop offset="0.04" stop-color="#ff9d21"/><stop offset="1" stop-color="#ffd963"/></linearGradient><linearGradient id="Naamloos_verloop_19" x1="635.53" y1="489.98" x2="699.97" y2="366.81" gradientTransform="matrix(-1, 0, 0, 1, 1279.12, 0)" gradientUnits="userSpaceOnUse"><stop offset="0.04" stop-color="#2eb7ff"/><stop offset="1" stop-color="#ba00ff"/></linearGradient></defs><g id="Laag_11" data-name="Laag 11"><path class="cls-1" d="M419.32,463.56a489.68,489.68,0,0,0,132-82A489.31,489.31,0,0,0,653.18,258.38a112.37,112.37,0,0,1-22.61,84.7,32.08,32.08,0,0,0,19.23-.59C661.87,338.2,667,327.93,668,325.8a146.93,146.93,0,0,1-53.17,100.67,39.57,39.57,0,0,0,21.37,0,40.17,40.17,0,0,0,21.53-15.28c-18.06,51.48-62.55,88.73-115.1,96.13C472.33,517.25,424.12,468.58,419.32,463.56Z"/></g><g id="Laag_10" data-name="Laag 10"><path class="cls-2" d="M596.56,650.68c6.6,12.87,20.56,36.39,44.53,54,26.77,19.66,51.8,21.47,63.61,21.32C702.38,728.5,666,766.41,621,745.88,576.11,725.43,564.43,666,563.7,662Z"/></g><g id="Laag_9" data-name="Laag 9"><path class="cls-3" d="M571.58,668.83c-.28,9.94.31,28.68,8.67,46.86,9.34,20.3,23.41,29.09,30.38,32.62-2.17.83-35.7,13-55.45-13.45s-7.36-66.45-6.51-69.12Z"/></g><g id="Laag_8" data-name="Laag 8"><path class="cls-4" d="M407.2,285.18a286.61,286.61,0,0,0-11,29c-29.89,93.77-24.4,244.25,76,324,56.35,44.76,122.58,51.34,162,51-33.51-31.78-72.74-79.82-86-145-16.66-81.92,19.52-132.86-11-187C522,330.18,488.46,299.33,407.2,285.18Z"/></g><g id="Laag_7" data-name="Laag 7"><path class="cls-5" d="M342.39,337.18c13.69-38,59-60.95,102.82-49"/><path class="cls-5" d="M445.21,288.18c44.37,10.55,71.39,54.25,59.81,96-11.69,42.13-58.54,67.39-102.82,55a89.49,89.49,0,0,1-12.18-4"/></g><g id="Laag_6" data-name="Laag 6"><circle class="cls-6" cx="454.7" cy="372.68" r="20.5"/></g><g id="Laag_5" data-name="Laag 5"><path class="cls-7" d="M439,288.79l-34,101.89-97.51-30.42c.3-4.48,3.7-45.18,40.24-68.42C374.77,274.59,409.83,273.49,439,288.79Z"/></g><g id="Laag_3" data-name="Laag 3"><path class="cls-8" d="M351.77,373.91l53.78,15.42L390,435.21c-2.37-.12-23.8-1.49-36.21-18.5A38.87,38.87,0,0,1,351.77,373.91Z"/></g><g id="Laag_2" data-name="Laag 2"><path class="cls-9" d="M447.7,450.68a489.62,489.62,0,0,0,145-56,489.62,489.62,0,0,0,123-102,112.42,112.42,0,0,1-38,79,32.09,32.09,0,0,0,19,3c12.66-2,19.61-11.1,21-13a146.9,146.9,0,0,1-71,89,39.76,39.76,0,0,0,21,4,40.31,40.31,0,0,0,24-11c-27.34,47.21-78,75.52-131,73C489.78,513.3,451.48,456.5,447.7,450.68Z"/></g></svg>