<svg width="358" height="201" viewBox="0 0 358 201" fill="none" xmlns="http://www.w3.org/2000/svg">
<rect width="358" height="201" fill="#ED2B7E"/>
<path d="M234.976 78.598V74.8607H181.503V74.83V21H124V74.8607V78.5704V128.688V132.428H177.475V132.459H234.979V78.598H234.976ZM181.503 88.2929V78.598H190.904V88.3236H181.503V88.2929ZM181.503 92.064H194.649V78.598H204.345V101.79H181.503V92.064ZM181.503 105.53H208.09V78.598H217.789V115.252H181.503V105.53ZM177.475 128.688H127.748V78.5704H137.444V115.225V118.962H177.475V128.688ZM177.475 115.225H141.19V78.5704H150.888V101.765V105.505H177.475V115.225ZM177.475 92.064V101.765H154.634V78.5704H164.329V92.0333H177.475V92.064ZM177.475 88.2929H168.075V78.5704H177.469V78.598L177.475 88.2929ZM177.764 74.83H127.752V24.7404H177.764V74.83ZM231.233 128.718H181.503V128.688V118.993H221.538V115.252V78.598H231.233V128.718Z" fill="white"/>
<path d="M130.915 156.785H127.253V139.011H130.915V156.785ZM137.397 143.577L137.507 145.054C138.442 143.906 139.708 143.333 141.303 143.333C143.004 143.333 144.172 144.004 144.806 145.347C145.734 144.004 147.057 143.333 148.774 143.333C150.206 143.333 151.272 143.752 151.972 144.59C152.672 145.42 153.022 146.673 153.022 148.35V156.785H149.482V148.362C149.482 147.613 149.335 147.068 149.042 146.726C148.749 146.376 148.232 146.201 147.492 146.201C146.434 146.201 145.702 146.706 145.295 147.715L145.307 156.785H141.779V148.374C141.779 147.609 141.628 147.056 141.327 146.714C141.026 146.372 140.514 146.201 139.789 146.201C138.788 146.201 138.064 146.616 137.616 147.446V156.785H134.089V143.577H137.397ZM167.633 150.303C167.633 152.337 167.17 153.969 166.242 155.198C165.322 156.418 164.077 157.029 162.507 157.029C161.172 157.029 160.094 156.565 159.272 155.637V161.863H155.744V143.577H159.015L159.137 144.871C159.992 143.845 161.107 143.333 162.482 143.333C164.11 143.333 165.375 143.935 166.279 145.139C167.182 146.344 167.633 148.004 167.633 150.12V150.303ZM164.106 150.046C164.106 148.818 163.886 147.869 163.446 147.202C163.015 146.535 162.384 146.201 161.554 146.201C160.448 146.201 159.687 146.624 159.272 147.471V152.878C159.703 153.749 160.472 154.185 161.579 154.185C163.263 154.185 164.106 152.805 164.106 150.046ZM175.91 157.029C173.973 157.029 172.394 156.435 171.174 155.247C169.961 154.058 169.355 152.476 169.355 150.498V150.156C169.355 148.83 169.611 147.646 170.124 146.604C170.636 145.554 171.361 144.749 172.297 144.187C173.241 143.617 174.315 143.333 175.519 143.333C177.326 143.333 178.746 143.902 179.779 145.042C180.821 146.181 181.342 147.796 181.342 149.888V151.328H172.931C173.045 152.191 173.387 152.882 173.957 153.403C174.535 153.924 175.263 154.185 176.142 154.185C177.501 154.185 178.563 153.692 179.328 152.708L181.061 154.648C180.532 155.397 179.816 155.983 178.913 156.406C178.009 156.821 177.008 157.029 175.91 157.029ZM175.507 146.189C174.807 146.189 174.237 146.425 173.798 146.897C173.367 147.369 173.09 148.044 172.968 148.923H177.875V148.643C177.859 147.861 177.647 147.259 177.24 146.836C176.834 146.405 176.256 146.189 175.507 146.189ZM190.778 146.885C190.298 146.82 189.875 146.787 189.508 146.787C188.174 146.787 187.299 147.239 186.884 148.142V156.785H183.356V143.577H186.689L186.786 145.151C187.494 143.939 188.475 143.333 189.728 143.333C190.119 143.333 190.485 143.385 190.827 143.491L190.778 146.885ZM196.21 156.785H192.67V143.577H196.21V156.785ZM192.463 140.159C192.463 139.63 192.638 139.194 192.987 138.853C193.346 138.511 193.83 138.34 194.44 138.34C195.042 138.34 195.522 138.511 195.881 138.853C196.239 139.194 196.418 139.63 196.418 140.159C196.418 140.696 196.235 141.135 195.868 141.477C195.51 141.819 195.034 141.99 194.44 141.99C193.846 141.99 193.366 141.819 193 141.477C192.642 141.135 192.463 140.696 192.463 140.159ZM207.038 155.442C206.167 156.5 204.963 157.029 203.424 157.029C202.008 157.029 200.926 156.622 200.177 155.808C199.437 154.994 199.058 153.802 199.042 152.231V143.577H202.57V152.109C202.57 153.485 203.197 154.172 204.45 154.172C205.646 154.172 206.468 153.757 206.916 152.927V143.577H210.456V156.785H207.135L207.038 155.442ZM216.425 143.577L216.535 145.054C217.471 143.906 218.736 143.333 220.331 143.333C222.032 143.333 223.2 144.004 223.835 145.347C224.762 144.004 226.085 143.333 227.802 143.333C229.234 143.333 230.3 143.752 231 144.59C231.7 145.42 232.05 146.673 232.05 148.35V156.785H228.51V148.362C228.51 147.613 228.363 147.068 228.07 146.726C227.778 146.376 227.261 146.201 226.52 146.201C225.462 146.201 224.73 146.706 224.323 147.715L224.335 156.785H220.807V148.374C220.807 147.609 220.657 147.056 220.356 146.714C220.055 146.372 219.542 146.201 218.818 146.201C217.817 146.201 217.092 146.616 216.645 147.446V156.785H213.117V143.577H216.425Z" fill="white"/>
<path d="M131.514 167.492H128.834V174.749H128.174V167.492H125.499V166.928H131.514V167.492ZM131.74 171.757C131.74 171.198 131.847 170.695 132.062 170.248C132.281 169.8 132.587 169.453 132.981 169.206C133.378 168.955 133.828 168.83 134.329 168.83C135.102 168.83 135.729 169.102 136.209 169.646C136.689 170.187 136.928 170.905 136.928 171.8V171.934C136.928 172.497 136.819 173.003 136.601 173.454C136.386 173.902 136.082 174.247 135.688 174.491C135.294 174.734 134.845 174.856 134.34 174.856C133.57 174.856 132.943 174.586 132.46 174.045C131.98 173.501 131.74 172.781 131.74 171.886V171.757ZM132.385 171.934C132.385 172.629 132.564 173.2 132.922 173.648C133.283 174.092 133.756 174.314 134.34 174.314C134.92 174.314 135.389 174.092 135.747 173.648C136.109 173.2 136.289 172.611 136.289 171.881V171.757C136.289 171.313 136.207 170.907 136.042 170.538C135.878 170.169 135.647 169.884 135.349 169.684C135.052 169.48 134.712 169.378 134.329 169.378C133.756 169.378 133.289 169.603 132.927 170.054C132.565 170.502 132.385 171.089 132.385 171.816V171.934ZM138.873 168.937L138.894 169.931C139.113 169.573 139.385 169.301 139.711 169.115C140.037 168.925 140.396 168.83 140.79 168.83C141.413 168.83 141.877 169.005 142.181 169.356C142.486 169.707 142.64 170.233 142.643 170.935V174.749H142.004V170.93C142.001 170.411 141.89 170.024 141.671 169.77C141.456 169.516 141.111 169.388 140.635 169.388C140.237 169.388 139.884 169.514 139.576 169.764C139.272 170.011 139.046 170.346 138.9 170.769V174.749H138.261V168.937H138.873ZM146.559 174.856C146.065 174.856 145.617 174.734 145.216 174.491C144.819 174.247 144.509 173.909 144.287 173.476C144.065 173.039 143.954 172.55 143.954 172.01V171.779C143.954 171.22 144.061 170.717 144.276 170.269C144.495 169.822 144.797 169.471 145.184 169.217C145.571 168.959 145.99 168.83 146.441 168.83C147.146 168.83 147.705 169.072 148.116 169.555C148.532 170.035 148.74 170.692 148.74 171.526V171.886H144.593V172.01C144.593 172.668 144.781 173.218 145.157 173.658C145.537 174.095 146.013 174.314 146.586 174.314C146.929 174.314 147.232 174.251 147.493 174.126C147.758 174 147.998 173.8 148.213 173.524L148.616 173.83C148.143 174.514 147.458 174.856 146.559 174.856ZM146.441 169.378C145.957 169.378 145.549 169.555 145.216 169.909C144.887 170.264 144.686 170.74 144.615 171.338H148.1V171.268C148.082 170.71 147.923 170.255 147.622 169.904C147.322 169.553 146.928 169.378 146.441 169.378ZM152.241 174.856C151.747 174.856 151.3 174.734 150.899 174.491C150.501 174.247 150.192 173.909 149.97 173.476C149.748 173.039 149.636 172.55 149.636 172.01V171.779C149.636 171.22 149.744 170.717 149.959 170.269C150.177 169.822 150.48 169.471 150.866 169.217C151.253 168.959 151.672 168.83 152.123 168.83C152.829 168.83 153.387 169.072 153.799 169.555C154.214 170.035 154.422 170.692 154.422 171.526V171.886H150.276V172.01C150.276 172.668 150.464 173.218 150.84 173.658C151.219 174.095 151.695 174.314 152.268 174.314C152.612 174.314 152.915 174.251 153.176 174.126C153.441 174 153.681 173.8 153.896 173.524L154.299 173.83C153.826 174.514 153.14 174.856 152.241 174.856ZM152.123 169.378C151.64 169.378 151.232 169.555 150.899 169.909C150.569 170.264 150.369 170.74 150.297 171.338H153.783V171.268C153.765 170.71 153.606 170.255 153.305 169.904C153.004 169.553 152.61 169.378 152.123 169.378ZM156.393 174.749H155.749V166.499H156.393V174.749ZM157.886 171.789C157.886 170.88 158.087 170.16 158.488 169.63C158.893 169.097 159.441 168.83 160.132 168.83C160.923 168.83 161.525 169.145 161.936 169.775L161.969 168.937H162.57V174.631C162.57 175.379 162.361 175.972 161.942 176.408C161.523 176.845 160.955 177.064 160.239 177.064C159.834 177.064 159.448 176.972 159.079 176.79C158.714 176.611 158.425 176.371 158.214 176.07L158.574 175.683C159.029 176.242 159.569 176.521 160.196 176.521C160.733 176.521 161.152 176.362 161.453 176.043C161.754 175.728 161.909 175.289 161.92 174.727V173.997C161.508 174.57 160.909 174.856 160.121 174.856C159.448 174.856 158.907 174.588 158.499 174.051C158.091 173.513 157.886 172.788 157.886 171.875V171.789ZM158.536 171.902C158.536 172.643 158.685 173.229 158.982 173.658C159.279 174.085 159.698 174.298 160.239 174.298C161.03 174.298 161.591 173.943 161.92 173.234V170.532C161.77 170.16 161.553 169.877 161.27 169.684C160.987 169.487 160.647 169.388 160.25 169.388C159.709 169.388 159.288 169.601 158.988 170.028C158.687 170.45 158.536 171.075 158.536 171.902ZM166.931 169.485C166.795 169.46 166.65 169.448 166.496 169.448C166.095 169.448 165.755 169.56 165.476 169.786C165.2 170.008 165.003 170.332 164.885 170.758V174.749H164.246V168.937H164.874L164.885 169.861C165.225 169.174 165.771 168.83 166.523 168.83C166.702 168.83 166.844 168.853 166.948 168.9L166.931 169.485ZM167.49 171.757C167.49 171.198 167.597 170.695 167.812 170.248C168.031 169.8 168.337 169.453 168.731 169.206C169.128 168.955 169.578 168.83 170.079 168.83C170.852 168.83 171.479 169.102 171.959 169.646C172.439 170.187 172.678 170.905 172.678 171.8V171.934C172.678 172.497 172.569 173.003 172.351 173.454C172.136 173.902 171.832 174.247 171.438 174.491C171.044 174.734 170.595 174.856 170.09 174.856C169.32 174.856 168.693 174.586 168.21 174.045C167.73 173.501 167.49 172.781 167.49 171.886V171.757ZM168.135 171.934C168.135 172.629 168.314 173.2 168.672 173.648C169.033 174.092 169.506 174.314 170.09 174.314C170.67 174.314 171.139 174.092 171.497 173.648C171.859 173.2 172.039 172.611 172.039 171.881V171.757C172.039 171.313 171.957 170.907 171.792 170.538C171.628 170.169 171.397 169.884 171.099 169.684C170.802 169.48 170.462 169.378 170.079 169.378C169.506 169.378 169.039 169.603 168.677 170.054C168.315 170.502 168.135 171.089 168.135 171.816V171.934ZM176.261 174.856C175.767 174.856 175.319 174.734 174.918 174.491C174.521 174.247 174.211 173.909 173.989 173.476C173.767 173.039 173.656 172.55 173.656 172.01V171.779C173.656 171.22 173.763 170.717 173.978 170.269C174.197 169.822 174.499 169.471 174.886 169.217C175.273 168.959 175.692 168.83 176.143 168.83C176.848 168.83 177.407 169.072 177.819 169.555C178.234 170.035 178.442 170.692 178.442 171.526V171.886H174.295V172.01C174.295 172.668 174.483 173.218 174.859 173.658C175.239 174.095 175.715 174.314 176.288 174.314C176.632 174.314 176.934 174.251 177.196 174.126C177.461 174 177.7 173.8 177.915 173.524L178.318 173.83C177.845 174.514 177.16 174.856 176.261 174.856ZM176.143 169.378C175.659 169.378 175.251 169.555 174.918 169.909C174.589 170.264 174.388 170.74 174.317 171.338H177.803V171.268C177.785 170.71 177.625 170.255 177.324 169.904C177.024 169.553 176.63 169.378 176.143 169.378ZM184.366 171.902C184.366 172.808 184.165 173.528 183.764 174.061C183.363 174.591 182.826 174.856 182.153 174.856C181.358 174.856 180.749 174.577 180.327 174.018V176.983H179.688V168.937H180.284L180.316 169.759C180.735 169.14 181.342 168.83 182.137 168.83C182.832 168.83 183.376 169.093 183.77 169.619C184.167 170.146 184.366 170.876 184.366 171.811V171.902ZM183.721 171.789C183.721 171.048 183.569 170.463 183.265 170.033C182.961 169.603 182.536 169.388 181.992 169.388C181.598 169.388 181.26 169.483 180.977 169.673C180.694 169.863 180.477 170.139 180.327 170.5V173.288C180.481 173.621 180.701 173.875 180.988 174.051C181.274 174.226 181.612 174.314 182.003 174.314C182.543 174.314 182.964 174.099 183.265 173.669C183.569 173.236 183.721 172.609 183.721 171.789ZM191.015 170.774H193.395V171.376H191.015V173.965H190.366V171.376H188.034V170.774H190.366V168.271H191.015V170.774ZM202.595 167.492H199.915V174.749H199.255V167.492H196.58V166.928H202.595V167.492ZM204.352 169.92C204.563 169.573 204.833 169.304 205.163 169.115C205.492 168.925 205.852 168.83 206.242 168.83C206.866 168.83 207.329 169.005 207.634 169.356C207.938 169.707 208.092 170.233 208.095 170.935V174.749H207.456V170.93C207.453 170.411 207.342 170.024 207.123 169.77C206.908 169.516 206.563 169.388 206.087 169.388C205.689 169.388 205.337 169.514 205.029 169.764C204.724 170.011 204.499 170.346 204.352 170.769V174.749H203.713V166.499H204.352V169.92ZM212 174.856C211.506 174.856 211.059 174.734 210.657 174.491C210.26 174.247 209.95 173.909 209.728 173.476C209.506 173.039 209.395 172.55 209.395 172.01V171.779C209.395 171.22 209.503 170.717 209.718 170.269C209.936 169.822 210.239 169.471 210.625 169.217C211.012 168.959 211.431 168.83 211.882 168.83C212.588 168.83 213.146 169.072 213.558 169.555C213.973 170.035 214.181 170.692 214.181 171.526V171.886H210.034V172.01C210.034 172.668 210.222 173.218 210.598 173.658C210.978 174.095 211.454 174.314 212.027 174.314C212.371 174.314 212.673 174.251 212.935 174.126C213.2 174 213.44 173.8 213.655 173.524L214.057 173.83C213.585 174.514 212.899 174.856 212 174.856ZM211.882 169.378C211.399 169.378 210.991 169.555 210.657 169.909C210.328 170.264 210.128 170.74 210.056 171.338H213.542V171.268C213.524 170.71 213.365 170.255 213.064 169.904C212.763 169.553 212.369 169.378 211.882 169.378ZM219.101 174.749C219.036 174.566 218.995 174.296 218.977 173.938C218.752 174.231 218.463 174.459 218.113 174.62C217.765 174.777 217.396 174.856 217.006 174.856C216.448 174.856 215.995 174.7 215.647 174.389C215.303 174.077 215.132 173.684 215.132 173.207C215.132 172.642 215.366 172.194 215.835 171.865C216.308 171.535 216.965 171.37 217.806 171.37H218.972V170.71C218.972 170.294 218.843 169.969 218.585 169.732C218.331 169.492 217.959 169.372 217.468 169.372C217.02 169.372 216.65 169.487 216.356 169.716C216.063 169.945 215.916 170.221 215.916 170.543L215.271 170.538C215.271 170.076 215.486 169.677 215.916 169.34C216.345 169 216.874 168.83 217.5 168.83C218.148 168.83 218.659 168.993 219.031 169.319C219.407 169.641 219.6 170.092 219.611 170.672V173.422C219.611 173.984 219.67 174.405 219.788 174.684V174.749H219.101ZM217.081 174.287C217.511 174.287 217.894 174.183 218.231 173.975C218.571 173.768 218.818 173.49 218.972 173.143V171.865H217.823C217.182 171.872 216.68 171.99 216.319 172.219C215.957 172.445 215.776 172.756 215.776 173.154C215.776 173.479 215.896 173.75 216.136 173.965C216.379 174.179 216.695 174.287 217.081 174.287ZM222.329 167.449V168.937H223.532V169.464H222.329V173.336C222.329 173.658 222.386 173.898 222.501 174.056C222.619 174.213 222.814 174.292 223.086 174.292C223.194 174.292 223.367 174.274 223.607 174.239L223.634 174.765C223.466 174.826 223.237 174.856 222.947 174.856C222.506 174.856 222.186 174.729 221.985 174.475C221.785 174.217 221.684 173.839 221.684 173.342V169.464H220.616V168.937H221.684V167.449H222.329ZM227.115 174.856C226.62 174.856 226.173 174.734 225.772 174.491C225.374 174.247 225.065 173.909 224.843 173.476C224.621 173.039 224.51 172.55 224.51 172.01V171.779C224.51 171.22 224.617 170.717 224.832 170.269C225.05 169.822 225.353 169.471 225.74 169.217C226.126 168.959 226.545 168.83 226.996 168.83C227.702 168.83 228.26 169.072 228.672 169.555C229.088 170.035 229.295 170.692 229.295 171.526V171.886H225.149V172.01C225.149 172.668 225.337 173.218 225.713 173.658C226.092 174.095 226.568 174.314 227.141 174.314C227.485 174.314 227.788 174.251 228.049 174.126C228.314 174 228.554 173.8 228.769 173.524L229.172 173.83C228.699 174.514 228.013 174.856 227.115 174.856ZM226.996 169.378C226.513 169.378 226.105 169.555 225.772 169.909C225.442 170.264 225.242 170.74 225.17 171.338H228.656V171.268C228.638 170.71 228.479 170.255 228.178 169.904C227.877 169.553 227.483 169.378 226.996 169.378ZM233.232 169.485C233.096 169.46 232.951 169.448 232.797 169.448C232.396 169.448 232.056 169.56 231.777 169.786C231.501 170.008 231.304 170.332 231.186 170.758V174.749H230.547V168.937H231.175L231.186 169.861C231.526 169.174 232.072 168.83 232.824 168.83C233.003 168.83 233.144 168.853 233.248 168.9L233.232 169.485Z" fill="white"/>
</svg>
